<?xml version="1.0" encoding="UTF-8"?>
<svg xmlns="http://www.w3.org/2000/svg" xmlns:xlink="http://www.w3.org/1999/xlink" width="30pt" height="43pt" viewBox="0 0 30 43" version="1.1">
<g id="surface1">
<path style=" stroke:none;fill-rule:nonzero;fill:rgb(0%,0%,0%);fill-opacity:1;" d="M 20.6875 21.5 L 29.214844 13.09375 C 30.261719 12.0625 30.261719 10.390625 29.214844 9.359375 L 27.320312 7.492188 C 26.273438 6.460938 24.574219 6.460938 23.527344 7.492188 L 15 15.898438 L 6.472656 7.492188 C 5.425781 6.460938 3.726562 6.460938 2.679688 7.492188 L 0.785156 9.359375 C -0.261719 10.390625 -0.261719 12.0625 0.785156 13.09375 L 9.3125 21.5 L 0.785156 29.90625 C -0.261719 30.9375 -0.261719 32.609375 0.785156 33.640625 L 2.679688 35.507812 C 3.726562 36.539062 5.425781 36.539062 6.472656 35.507812 L 15 27.101562 L 23.527344 35.507812 C 24.574219 36.539062 26.273438 36.539062 27.320312 35.507812 L 29.214844 33.640625 C 30.261719 32.609375 30.261719 30.9375 29.214844 29.90625 Z M 20.6875 21.5 "/>
</g>
</svg>
